<svg xmlns="http://www.w3.org/2000/svg" viewBox="0 0 247.01 288.48"><g id="Calque_2" data-name="Calque 2"><g id="Layer_1" data-name="Layer 1"><path d="M27.54,76.09c-4.89,14.12-6.94,19.17-6.16,24.79.57,4.06,4.68,5.79,4.68,12.17,0,11.28-26.85,36.63-26,44.62.55,5.52,14.16,9,18,16.17,2.41,4.57-.18,11.93-5.41,17.26.51,5.59,3,6.55,6.35,7.53-3.74,1-4.85,4.73-4.44,8.25,9.54,2.86,4.37,9,2.42,15.62a18.58,18.58,0,0,0,1.38,13.59c2,4.14,7.84,4.65,15.49,5.1,10.14.58,23.21.31,37.68,12.26,9.12,7.53,17.3,22.13,20.71,35L217,288.07C202.72,254,193.3,211.62,206.6,200,255.42,157.41,275,38.72,177.77,6.86,107.76-16.07,46.45,21.39,27.54,76.09Z" style="fill:#23353f;fill-rule:evenodd"/></g></g></svg>