<svg xmlns="http://www.w3.org/2000/svg" viewBox="0 0 338.94 395.85"><g id="Calque_2" data-name="Calque 2"><g id="Layer_1" data-name="Layer 1"><path d="M37.78,104.41c-6.69,19.37-9.52,26.31-8.44,34,.78,5.58,6.42,7.94,6.42,16.71,0,15.47-36.84,50.25-35.74,61.22.77,7.58,19.44,12.36,24.64,22.19,3.31,6.26-.25,16.37-7.42,23.68.69,7.67,4.18,9,8.7,10.34-5.12,1.36-6.65,6.49-6.08,11.32,13.08,3.92,6,12.4,3.32,21.44A25.45,25.45,0,0,0,25.06,324c2.8,5.68,10.77,6.38,21.27,7,13.9.81,31.84.43,51.7,16.83,12.51,10.33,23.74,30.37,28.41,48.07l171.28-.57c-19.54-46.81-32.48-104.9-14.23-120.83,67-58.45,93.86-221.32-39.56-265C147.86-22,63.74,29.35,37.78,104.41Z" style="fill:#23353f;fill-rule:evenodd"/></g></g></svg>